<svg width="68" height="35" viewBox="0 0 68 35" fill="none" xmlns="http://www.w3.org/2000/svg">
<path d="M3.16357 1.87982C3.16357 2.31737 2.67607 2.84851 1.83179 2.84851C0.987503 2.84851 0.5 2.31737 0.5 1.87982C0.5 1.44228 0.987509 0.911133 1.83179 0.911133C2.67606 0.911133 3.16357 1.44228 3.16357 1.87982Z" fill="#9871F5" stroke="#9871F5"/>
<path d="M15.9587 1.87918C15.9587 2.3167 15.4712 2.84783 14.627 2.84783C13.7827 2.84783 13.2952 2.3167 13.2952 1.87918C13.2952 1.44166 13.7827 0.910522 14.627 0.910522C15.4712 0.910522 15.9587 1.44166 15.9587 1.87918Z" fill="#9871F5" stroke="#9871F5"/>
<path d="M28.7448 1.87918C28.7448 2.3167 28.2573 2.84783 27.413 2.84783C26.5687 2.84783 26.0812 2.3167 26.0812 1.87918C26.0812 1.44166 26.5687 0.910522 27.413 0.910522C28.2573 0.910522 28.7448 1.44166 28.7448 1.87918Z" fill="#9871F5" stroke="#9871F5"/>
<path d="M41.54 1.87918C41.54 2.3167 41.0525 2.84783 40.2082 2.84783C39.3639 2.84783 38.8764 2.3167 38.8764 1.87918C38.8764 1.44166 39.3639 0.910522 40.2082 0.910522C41.0525 0.910522 41.54 1.44166 41.54 1.87918Z" fill="#9871F5" stroke="#9871F5"/>
<path d="M54.3256 1.87918C54.3256 2.3167 53.8381 2.84783 52.9938 2.84783C52.1495 2.84783 51.662 2.3167 51.662 1.87918C51.662 1.44166 52.1495 0.910522 52.9938 0.910522C53.8381 0.910522 54.3256 1.44166 54.3256 1.87918Z" fill="#9871F5" stroke="#9871F5"/>
<path d="M67.1208 1.87918C67.1208 2.3167 66.6333 2.84783 65.789 2.84783C64.9447 2.84783 64.4572 2.3167 64.4572 1.87918C64.4572 1.44166 64.9447 0.910522 65.789 0.910522C66.6333 0.910522 67.1208 1.44166 67.1208 1.87918Z" fill="#9871F5" stroke="#9871F5"/>
<path d="M3.16357 12.1306C3.16357 12.5682 2.67606 13.0994 1.83179 13.0994C0.987519 13.0994 0.5 12.5682 0.5 12.1306C0.5 11.6931 0.987519 11.1619 1.83179 11.1619C2.67606 11.1619 3.16357 11.6931 3.16357 12.1306Z" fill="#9871F5" stroke="#9871F5"/>
<path d="M15.9592 12.1306C15.9592 12.5682 15.4717 13.0994 14.6274 13.0994C13.7832 13.0994 13.2957 12.5682 13.2957 12.1306C13.2957 11.6931 13.7832 11.1619 14.6274 11.1619C15.4717 11.1619 15.9592 11.6931 15.9592 12.1306Z" fill="#9871F5" stroke="#9871F5"/>
<path d="M28.7448 12.1306C28.7448 12.5682 28.2573 13.0994 27.413 13.0994C26.5688 13.0994 26.0812 12.5682 26.0812 12.1306C26.0812 11.6931 26.5688 11.1619 27.413 11.1619C28.2573 11.1619 28.7448 11.6931 28.7448 12.1306Z" fill="#9871F5" stroke="#9871F5"/>
<path d="M41.54 12.1306C41.54 12.5682 41.0525 13.0994 40.2082 13.0994C39.3639 13.0994 38.8764 12.5682 38.8764 12.1306C38.8764 11.6931 39.3639 11.1619 40.2082 11.1619C41.0525 11.1619 41.54 11.6931 41.54 12.1306Z" fill="#9871F5" stroke="#9871F5"/>
<path d="M54.3256 12.1306C54.3256 12.5682 53.8381 13.0994 52.9938 13.0994C52.1496 13.0994 51.662 12.5682 51.662 12.1306C51.662 11.6931 52.1496 11.1619 52.9938 11.1619C53.8381 11.1619 54.3256 11.6931 54.3256 12.1306Z" fill="#9871F5" stroke="#9871F5"/>
<path d="M67.1208 12.1306C67.1208 12.5682 66.6333 13.0994 65.789 13.0994C64.9447 13.0994 64.4572 12.5682 64.4572 12.1306C64.4572 11.6931 64.9447 11.1619 65.789 11.1619C66.6333 11.1619 67.1208 11.6931 67.1208 12.1306Z" fill="#9871F5" stroke="#9871F5"/>
<path d="M3.16357 22.3899C3.16357 22.8274 2.67608 23.3585 1.83179 23.3585C0.987492 23.3585 0.5 22.8274 0.5 22.3899C0.5 21.9523 0.987498 21.4212 1.83179 21.4212C2.67608 21.4212 3.16357 21.9523 3.16357 22.3899Z" fill="#9871F5" stroke="#9871F5"/>
<path d="M15.9592 22.3899C15.9592 22.8274 15.4717 23.3585 14.6274 23.3585C13.7831 23.3585 13.2957 22.8274 13.2957 22.3899C13.2957 21.9523 13.7832 21.4212 14.6274 21.4212C15.4717 21.4212 15.9592 21.9523 15.9592 22.3899Z" fill="#9871F5" stroke="#9871F5"/>
<path d="M28.7448 22.3899C28.7448 22.8274 28.2573 23.3585 27.413 23.3585C26.5687 23.3585 26.0812 22.8274 26.0812 22.3899C26.0812 21.9523 26.5687 21.4212 27.413 21.4212C28.2573 21.4212 28.7448 21.9523 28.7448 22.3899Z" fill="#9871F5" stroke="#9871F5"/>
<path d="M41.54 22.3899C41.54 22.8274 41.0525 23.3585 40.2082 23.3585C39.3639 23.3585 38.8764 22.8274 38.8764 22.3899C38.8764 21.9523 39.3639 21.4212 40.2082 21.4212C41.0525 21.4212 41.54 21.9523 41.54 22.3899Z" fill="#9871F5" stroke="#9871F5"/>
<path d="M54.3256 22.3899C54.3256 22.8274 53.8381 23.3585 52.9938 23.3585C52.1495 23.3585 51.662 22.8274 51.662 22.3899C51.662 21.9523 52.1495 21.4212 52.9938 21.4212C53.8381 21.4212 54.3256 21.9523 54.3256 22.3899Z" fill="#9871F5" stroke="#9871F5"/>
<path d="M67.1208 22.3899C67.1208 22.8274 66.6333 23.3585 65.789 23.3585C64.9447 23.3585 64.4572 22.8274 64.4572 22.3899C64.4572 21.9523 64.9447 21.4212 65.789 21.4212C66.6333 21.4212 67.1208 21.9523 67.1208 22.3899Z" fill="#9871F5" stroke="#9871F5"/>
<path d="M3.16357 32.6411C3.16357 33.0787 2.67606 33.6098 1.83179 33.6098C0.987519 33.6098 0.5 33.0787 0.5 32.6411C0.5 32.2035 0.987519 31.6724 1.83179 31.6724C2.67606 31.6724 3.16357 32.2035 3.16357 32.6411Z" fill="#9871F5" stroke="#9871F5"/>
<path d="M15.9592 32.6411C15.9592 33.0787 15.4717 33.6098 14.6274 33.6098C13.7832 33.6098 13.2957 33.0787 13.2957 32.6411C13.2957 32.2035 13.7832 31.6724 14.6274 31.6724C15.4717 31.6724 15.9592 32.2035 15.9592 32.6411Z" fill="#9871F5" stroke="#9871F5"/>
<path d="M28.7448 32.6411C28.7448 33.0787 28.2573 33.6098 27.413 33.6098C26.5688 33.6098 26.0812 33.0787 26.0812 32.6411C26.0812 32.2035 26.5688 31.6724 27.413 31.6724C28.2573 31.6724 28.7448 32.2035 28.7448 32.6411Z" fill="#9871F5" stroke="#9871F5"/>
<path d="M41.54 32.6411C41.54 33.0787 41.0525 33.6098 40.2082 33.6098C39.3639 33.6098 38.8764 33.0787 38.8764 32.6411C38.8764 32.2035 39.3639 31.6724 40.2082 31.6724C41.0525 31.6724 41.54 32.2035 41.54 32.6411Z" fill="#9871F5" stroke="#9871F5"/>
<path d="M54.3256 32.6411C54.3256 33.0787 53.8381 33.6098 52.9938 33.6098C52.1496 33.6098 51.662 33.0787 51.662 32.6411C51.662 32.2035 52.1496 31.6724 52.9938 31.6724C53.8381 31.6724 54.3256 32.2035 54.3256 32.6411Z" fill="#9871F5" stroke="#9871F5"/>
<path d="M67.1208 32.6411C67.1208 33.0787 66.6333 33.6098 65.789 33.6098C64.9447 33.6098 64.4572 33.0787 64.4572 32.6411C64.4572 32.2035 64.9447 31.6724 65.789 31.6724C66.6333 31.6724 67.1208 32.2035 67.1208 32.6411Z" fill="#9871F5" stroke="#9871F5"/>
</svg>
