<svg width="2218" height="1123" viewBox="0 0 2218 1123" fill="none" xmlns="http://www.w3.org/2000/svg">
<g filter="url(#filter0_d)">
<path d="M0 -1H2218V954H0V-1Z" fill="url(#paint0_linear)"/>
</g>
<g filter="url(#filter1_d)">
<path d="M0 1121H2218V819H0V1121Z" fill="#200E64"/>
</g>
<mask id="mask0" style="mask-type:alpha" maskUnits="userSpaceOnUse" x="1582" y="-1" width="699" height="956">
<rect x="1582" y="-1" width="699" height="956" fill="#C4C4C4"/>
</mask>
<g mask="url(#mask0)">
<path d="M1722 67V448.5C1722 659.195 1893.03 830 2104 830V635V448.5C2104 237.805 1932.97 67 1722 67Z" fill="url(#paint1_linear)"/>
<path d="M1612 239.741L1751.74 596.87C1828.92 794.106 2051.38 891.435 2248.61 814.259L2108.87 457.129C2031.69 259.894 1809.24 162.565 1612 239.741Z" fill="url(#paint2_linear)"/>
</g>
<defs>
<filter id="filter0_d" x="-10" y="-13" width="2246" height="983" filterUnits="userSpaceOnUse" color-interpolation-filters="sRGB">
<feFlood flood-opacity="0" result="BackgroundImageFix"/>
<feColorMatrix in="SourceAlpha" type="matrix" values="0 0 0 0 0 0 0 0 0 0 0 0 0 0 0 0 0 0 127 0" result="hardAlpha"/>
<feOffset dx="4" dy="2"/>
<feGaussianBlur stdDeviation="7"/>
<feColorMatrix type="matrix" values="0 0 0 0 0 0 0 0 0 0 0 0 0 0 0 0 0 0 0.05 0"/>
<feBlend mode="normal" in2="BackgroundImageFix" result="effect1_dropShadow"/>
<feBlend mode="normal" in="SourceGraphic" in2="effect1_dropShadow" result="shape"/>
</filter>
<filter id="filter1_d" x="-10" y="807" width="2246" height="330" filterUnits="userSpaceOnUse" color-interpolation-filters="sRGB">
<feFlood flood-opacity="0" result="BackgroundImageFix"/>
<feColorMatrix in="SourceAlpha" type="matrix" values="0 0 0 0 0 0 0 0 0 0 0 0 0 0 0 0 0 0 127 0" result="hardAlpha"/>
<feOffset dx="4" dy="2"/>
<feGaussianBlur stdDeviation="7"/>
<feColorMatrix type="matrix" values="0 0 0 0 0 0 0 0 0 0 0 0 0 0 0 0 0 0 0.05 0"/>
<feBlend mode="normal" in2="BackgroundImageFix" result="effect1_dropShadow"/>
<feBlend mode="normal" in="SourceGraphic" in2="effect1_dropShadow" result="shape"/>
</filter>
<linearGradient id="paint0_linear" x1="1109" y1="-1" x2="1109" y2="954" gradientUnits="userSpaceOnUse">
<stop stop-color="#7A57FD"/>
<stop offset="1" stop-color="#6135D7"/>
</linearGradient>
<linearGradient id="paint1_linear" x1="1913" y1="67" x2="1913" y2="830" gradientUnits="userSpaceOnUse">
<stop offset="0.0364583" stop-color="#FFEAA4" stop-opacity="0"/>
<stop offset="1" stop-color="#FFEAA4"/>
</linearGradient>
<linearGradient id="paint2_linear" x1="1790.56" y1="169.87" x2="2070.05" y2="884.129" gradientUnits="userSpaceOnUse">
<stop stop-color="#864EFD"/>
<stop offset="1" stop-color="#864EFD" stop-opacity="0"/>
</linearGradient>
</defs>
</svg>
