<svg width="140" height="23" viewBox="0 0 140 23" fill="none" xmlns="http://www.w3.org/2000/svg">
<path d="M17.5343 0.442352H0V5.27614H17.5343V0.442352ZM17.5343 9.00417H0V13.68H17.5343V9.00417ZM0 17.7239V22.5577H17.5343V17.7239H0Z" fill="white"/>
<path d="M44.6833 5.65527C43.6407 4.01241 42.1874 2.71708 40.3234 1.80087C38.4278 0.916254 36.2794 0.442352 33.8783 0.442352H23.4209V5.43411H33.6256C35.5212 5.43411 37.0377 5.9712 38.175 7.04537C39.3124 8.15114 39.9127 9.63603 39.9127 11.5C39.9127 13.3957 39.3124 14.8805 38.175 15.9547C37.0377 17.0289 35.5212 17.566 33.6256 17.566H29.6764V11.6896H23.4209V22.5577H33.8783C36.2794 22.5577 38.4278 22.1154 40.3234 21.1992C42.1874 20.3146 43.6407 19.0193 44.6833 17.3448C45.6942 15.702 46.2313 13.7432 46.2313 11.5C46.2313 9.28851 45.6942 7.32972 44.6833 5.65527Z" fill="white"/>
<path d="M54.2437 20.3146C56.0761 22.1154 58.6352 23 61.9209 23C65.2066 23 67.7341 22.1154 69.5665 20.3146C71.3989 18.5454 72.3151 15.9863 72.3151 12.7006V0.442352H66.1544V12.511C66.1544 16.0495 64.7643 17.8187 61.9841 17.8187C59.1723 17.8187 57.7822 16.0495 57.7822 12.511V0.442352H51.5267V12.7006C51.5267 15.9863 52.4113 18.5454 54.2437 20.3146Z" fill="white"/>
<path d="M78.7161 0.442352V22.5577H84.9716V0.442352H78.7161Z" fill="white"/>
<path d="M96.4176 21.5467C98.25 22.5261 100.335 23 102.673 23C104.695 23 106.496 22.6525 108.139 21.9258C109.75 21.2308 111.109 20.1882 112.183 18.8297L108.202 15.228C106.749 16.9657 105.011 17.8187 102.989 17.8187C101.788 17.8187 100.714 17.5659 99.7665 17.0288C98.8187 16.5234 98.0921 15.7651 97.5866 14.8173C97.0811 13.8695 96.8283 12.7637 96.8283 11.5C96.8283 10.2679 97.0811 9.16209 97.5866 8.21429C98.0921 7.26648 98.8187 6.50824 99.7665 5.97115C100.714 5.46566 101.788 5.18132 102.989 5.18132C105.011 5.18132 106.749 6.06594 108.202 7.77198L112.183 4.17033C111.109 2.84341 109.75 1.80082 108.139 1.07418C106.496 0.379122 104.695 0 102.673 0C100.335 0 98.25 0.505496 96.4176 1.48489C94.5852 2.46429 93.1319 3.8228 92.0893 5.56044C91.0151 7.32967 90.5096 9.28846 90.5096 11.5C90.5096 13.7115 91.0151 15.7019 92.0893 17.4396C93.1319 19.2088 94.5852 20.5673 96.4176 21.5467Z" fill="white"/>
<path d="M123.358 0.442352H117.166V9.85719L123.358 3.12779V0.442352ZM129.771 10.2363L138.807 0.442352H131.92L123.358 9.63603L117.166 16.3022V22.5577H123.358V17.0289L125.696 14.533L132.015 22.5577H139.281L129.771 10.2363Z" fill="white"/>
<rect y="0.525452" width="5.25506" height="22.0712" fill="white"/>
</svg>
